<svg height="503pt" viewBox="0 -20 503.6 503" width="503pt" xmlns="http://www.w3.org/2000/svg"><path d="m455.601562 24.300781v239.917969h-176v-239.917969c0-13.28125 10.71875-24 24-24h176c-13.289062 0-24 10.71875-24 24zm0 0" fill="#e6e9ed"/><path d="m367.542969 128.308594c-4.421875 0-8-3.578125-8-8v-72c0-4.425782 3.578125-8 8-8 4.425781 0 8 3.574218 8 8v72c0 4.421875-3.574219 8-8 8zm0 0" fill="#545c66"/><path d="m503.601562 24.300781v24h-48v-24c0-13.28125 10.71875-24 24-24 13.277344 0 24 10.71875 24 24zm0 0" fill="#ccd1d9"/><path d="m271.527344 424.210938c4.402344 0 8 3.601562 8 8v16.007812c0 4.402344-3.597656 8-8 8h-240.09375c-4.402344 0-8-3.597656-8-8v-16.007812c0-4.398438 3.597656-8 8-8zm0 0" fill="#656d78"/><path d="m231.519531 376.21875c4.402344 0 8 3.601562 8 8v16c0 4.402344-3.597656 8-8 8h-160c-4.398437 0-8-3.597656-8-8v-16c0-4.398438 3.601563-8 8-8h16 128zm0 0" fill="#965353"/><path d="m479.601562 264.21875c13.277344 0 24 10.800781 24 24 0 13.28125-10.722656 24-24 24h-224.082031v-48zm0 0" fill="#844747"/><path d="m255.519531 312.21875c0 4.402344-3.597656 8-8 8h-32.015625c-4.398437 0-8-3.597656-8-8v-48c0-4.398438 3.601563-8 8-8h32.015625c4.402344 0 8 3.601562 8 8zm0 0" fill="#965353"/><path d="m223.519531 320.21875v56h-144v-176h144zm-32-32c0-22.078125-17.917969-40-40-40-22.167969 0-40 17.921875-40 40 0 22.160156 17.832031 40 40 40 22.082031 0 40-17.839844 40-40zm0 0" fill="#844747"/><path d="m151.519531 272.21875c8.800781 0 16 7.203125 16 16 0 8.882812-7.199219 16-16 16-8.878906 0-16-7.117188-16-16 0-8.789062 7.113281-16 16-16zm0 0" fill="#844747"/><path d="m111.519531 288.21875c0-22.078125 17.832031-40 40-40 22.082031 0 40 17.921875 40 40 0 22.160156-17.917969 40-40 40-22.167969 0-40-17.839844-40-40zm40-16c-8.878906 0-16 7.203125-16 16 0 8.882812 7.121094 16 16 16 8.800781 0 16-7.117188 16-16 0-8.789062-7.207031-16-16-16zm0 0" fill="#965353"/><path d="m231.519531 168.21875c4.402344 0 8 3.601562 8 8v16c0 4.402344-3.597656 8-8 8-4.398437 0-11.597656 0-16 0h-128c-4.398437 0-11.597656 0-16 0-4.398437 0-8-3.597656-8-8v-16c0-4.398438 3.601563-8 8-8zm0 0" fill="#965353"/><path d="m399.542969 128.308594h-64c-4.421875 0-8-3.578125-8-8 0-4.425782 3.578125-8 8-8h64c4.425781 0 8 3.574218 8 8 0 4.421875-3.574219 8-8 8zm0 0" fill="#656d78"/><path d="m399.542969 64.308594h-64c-4.421875 0-8-3.578125-8-8 0-4.425782 3.578125-8 8-8h64c4.425781 0 8 3.574218 8 8 0 4.421875-3.574219 8-8 8zm0 0" fill="#656d78"/><path d="m407.542969 88.308594h-16c-4.421875 0-8-3.578125-8-8 0-4.425782 3.578125-8 8-8h16c4.425781 0 8 3.574218 8 8 0 4.421875-3.574219 8-8 8zm0 0" fill="#656d78"/><path d="m343.542969 88.308594h-16c-4.421875 0-8-3.578125-8-8 0-4.425782 3.578125-8 8-8h16c4.425781 0 8 3.574218 8 8 0 4.421875-3.574219 8-8 8zm0 0" fill="#656d78"/><path d="m287.472656 464.21875h-272.03125c-4.425781 0-8-3.574219-8-8 0-4.421875 3.574219-8 8-8h272.03125c4.421875 0 8 3.578125 8 8 0 4.425781-3.578125 8-8 8zm0 0" fill="#965353"/><g fill="#e6e9ed"><path d="m263.566406 400.203125c-2.046875 0-4.09375-.78125-5.65625-2.34375-3.125-3.128906-3.125-8.183594 0-11.3125l23.167969-23.167969c3.128906-3.125 8.1875-3.125 11.3125 0 3.128906 3.128906 3.128906 8.183594 0 11.3125l-23.167969 23.167969c-1.566406 1.570313-3.605468 2.34375-5.65625 2.34375zm0 0"/><path d="m39.558594 400.203125c-2.046875 0-4.09375-.78125-5.65625-2.34375l-23.542969-23.542969c-3.128906-3.128906-3.128906-8.183594 0-11.3125s8.183594-3.128906 11.3125 0l23.542969 23.542969c3.128906 3.128906 3.128906 8.183594 0 11.3125-1.566406 1.570313-3.605469 2.34375-5.65625 2.34375zm0 0"/><path d="m295.558594 416.253906h-16c-4.421875 0-8-3.578125-8-8 0-4.425781 3.578125-8 8-8h16c4.425781 0 8 3.574219 8 8 0 4.421875-3.582032 8-8 8zm0 0"/><path d="m23.550781 416.253906h-15.550781c-4.425781 0-8-3.578125-8-8 0-4.425781 3.574219-8 8-8h15.542969c4.425781 0 8 3.574219 8 8 0 4.421875-3.574219 8-7.992188 8zm0 0"/></g><path d="m415.542969 176.292969h-95.984375c-4.421875 0-8-3.578125-8-8 0-4.425781 3.578125-8 8-8h95.984375c4.425781 0 8 3.574219 8 8 0 4.421875-3.574219 8-8 8zm0 0" fill="#ccd1d9"/><path d="m415.542969 200.242188h-95.984375c-4.421875 0-8-3.574219-8-8 0-4.421876 3.578125-8 8-8h95.984375c4.425781 0 8 3.578124 8 8 0 4.425781-3.574219 8-8 8zm0 0" fill="#ccd1d9"/><path d="m391.519531 224.195312h-47.933593c-4.425782 0-8-3.574218-8-8 0-4.421874 3.574218-8 8-8h47.933593c4.425781 0 8 3.578126 8 8 0 4.425782-3.574219 8-8 8zm0 0" fill="#ccd1d9"/></svg>