<?xml version="1.0" encoding="iso-8859-1"?>
<!-- Generator: Adobe Illustrator 19.0.0, SVG Export Plug-In . SVG Version: 6.00 Build 0)  -->
<svg version="1.1" id="Layer_1" xmlns="http://www.w3.org/2000/svg" xmlns:xlink="http://www.w3.org/1999/xlink" x="0px" y="0px"
	 viewBox="0 0 503.322 503.322" style="enable-background:new 0 0 503.322 503.322;" xml:space="preserve">
<path style="fill:#D4D0BA;" d="M433.898,104.136h-86.78c-9.546,0-17.356-7.81-17.356-17.356V0L433.898,104.136z"/>
<path style="fill:#EFEADD;" d="M433.898,104.136h-86.78c-9.546,0-17.356-7.81-17.356-17.356V0H86.78
	c-9.546,0-17.356,7.81-17.356,17.356v468.61c0,9.546,7.81,17.356,17.356,17.356h329.763c9.546,0,17.356-7.81,17.356-17.356V104.136z
	"/>
<polygon style="fill:#F29C21;" points="130.169,433.898 182.237,433.898 182.237,312.407 130.169,312.407 "/>
<polygon style="fill:#F38774;" points="225.627,433.898 277.695,433.898 277.695,225.627 225.627,225.627 "/>
<polygon style="fill:#26B999;" points="321.085,433.898 373.153,433.898 373.153,260.339 321.085,260.339 "/>
<g>
	<path style="fill:#D4D0BA;" d="M234.305,112.814H121.492c-5.207,0-8.678-3.471-8.678-8.678c0-5.207,3.471-8.678,8.678-8.678
		h112.814c5.207,0,8.678,3.471,8.678,8.678C242.983,109.342,239.512,112.814,234.305,112.814"/>
	<path style="fill:#D4D0BA;" d="M190.915,147.525h-69.424c-5.207,0-8.678-3.471-8.678-8.678s3.471-8.678,8.678-8.678h69.424
		c5.207,0,8.678,3.471,8.678,8.678S196.122,147.525,190.915,147.525"/>
	<path style="fill:#D4D0BA;" d="M234.305,147.525h-8.678c-5.207,0-8.678-3.471-8.678-8.678s3.471-8.678,8.678-8.678h8.678
		c5.207,0,8.678,3.471,8.678,8.678S239.512,147.525,234.305,147.525"/>
</g>
<path style="fill:#91BAE0;" d="M390.508,442.576H112.814c-5.207,0-8.678-3.471-8.678-8.678c0-5.207,3.471-8.678,8.678-8.678h277.695
	c5.207,0,8.678,3.471,8.678,8.678C399.186,439.105,395.715,442.576,390.508,442.576"/>
<g>
</g>
<g>
</g>
<g>
</g>
<g>
</g>
<g>
</g>
<g>
</g>
<g>
</g>
<g>
</g>
<g>
</g>
<g>
</g>
<g>
</g>
<g>
</g>
<g>
</g>
<g>
</g>
<g>
</g>
</svg>
