<?xml version="1.0" encoding="iso-8859-1"?>
<!-- Generator: Adobe Illustrator 19.0.0, SVG Export Plug-In . SVG Version: 6.00 Build 0)  -->
<svg version="1.1" id="Capa_1" xmlns="http://www.w3.org/2000/svg" xmlns:xlink="http://www.w3.org/1999/xlink" x="0px" y="0px"
	 viewBox="0 0 512.007 512.007" style="enable-background:new 0 0 512.007 512.007;" xml:space="preserve">
<g transform="translate(0 -1)">
	<path style="fill:#919D9E;" d="M415.921,403.698c4.452,2.059,8.591,4.734,12.297,7.947c2.956-22.391,2.933-45.075-0.069-67.459
		c-19.235-5.812-40.614-32.242-49.747-62.616c-1.53-5.125-2.656-10.363-3.367-15.664c0.717,5.291,1.849,10.517,3.386,15.631
		c9.11,30.388,30.521,56.852,49.737,62.637c3.019,22.394,3.041,45.091,0.067,67.491l39.896-19.948
		c2.974-22.4,2.952-45.097-0.067-67.491c-19.216-5.785-40.627-32.249-49.737-62.637c-6.849-23.007-4.787-42.09,3.857-50.934
		l10.373-5.186c-11.696-25.088-25.58-49.097-41.492-71.747c-3.31,4.299-8.406,6.847-13.831,6.916
		c-11.769,0.665-27.462-7.315-42.29-22.874c-21.943-23.073-34.245-54.724-29.59-74.207c-18.019-13.802-37.784-25.16-58.781-33.778
		l-39.888,19.944l-0.002-0.001v0.001l-0.006,0.003l0.008,0.003c1.156,5.814,1.249,11.788,0.275,17.635
		c-0.866,6.985-4.547,13.313-10.19,17.519s-12.759,5.926-19.7,4.76c-8.667-1.142-16.931-4.356-24.093-9.37
		c7.169,5.008,15.439,8.215,24.109,9.348c6.938,1.172,14.053-0.546,19.692-4.753s9.312-10.539,10.164-17.523
		C185.938,38.788,169.326,22.057,160.92,1l-34.31,17.155c-1.71,1.296-3.345,2.688-4.897,4.169l-0.003-0.007
		c-0.272-0.44-0.503-0.903-0.692-1.384c-15.707,4.052-30.072,12.165-41.652,23.524c15.152,19.373,21.864,46.08,16.744,65.868
		c-0.585,2.336-1.389,4.612-2.4,6.798c1.008-2.189,1.805-4.469,2.38-6.809c-4.455-2.069-8.596-4.755-12.301-7.979l-39.896,19.948
		c5.261,4.702,11.509,8.166,18.284,10.138c-6.78-1.968-13.035-5.427-18.304-10.126c-2.956,22.391-2.933,45.075,0.069,67.459
		c19.235,5.812,40.614,32.242,49.747,62.685c9.064,30.374,2.629,53.968-14.253,56.112c11.711,25.063,25.602,49.049,41.514,71.68
		c10.378-13.492,34.179-7.057,56.112,15.983c21.933,23.109,34.249,54.729,29.613,74.24c18.014,13.784,37.764,25.136,58.742,33.764
		c-4.636-24.701,7.68-42.136,29.613-39.922c1.679,0.179,3.345,0.469,4.986,0.867c-1.639-0.388-3.301-0.668-4.977-0.838
		c-21.943-2.261-34.244,15.227-29.59,39.896l39.896-19.948c-1.165-5.805-1.277-11.771-0.333-17.616
		c21.03,8.525,37.667,25.266,46.061,46.349c8.432-2.174,16.515-5.528,24.009-9.963c0.153-0.067,0.294-0.161,0.415-0.277l0.069-0.069
		l0.036-0.024l31.878-15.607l0.665-0.332c9.074-4.312,17.349-10.135,24.47-17.222C417.522,450.167,410.808,423.446,415.921,403.698z
		 M289.77,272.436c5.147,14.867,5.773,30.926,1.799,46.149c-28.298-9.963-57.496-43.451-69.051-80.882
		c-4.84-14.224-5.866-29.468-2.975-44.212C247.704,200.203,278.285,234.036,289.77,272.436z M380.085,233.239
		c2.838-4.323,7.423-7.19,12.553-7.848l0.012,0.024C387.52,226.063,382.93,228.921,380.085,233.239z M295.038,137.71
		c15.081,15.857,31.041,23.831,42.915,22.886c-11.877,0.963-27.842-7.027-42.924-22.871c-21.933-23.109-34.249-54.729-29.613-74.24
		c-1.888-1.427-3.804-2.685-5.703-4.049c1.91,1.37,3.831,2.636,5.736,4.068C260.794,82.986,273.095,114.636,295.038,137.71z
		 M227.158,39.321c-4.696-2.445-9.401-4.698-14.116-6.759C217.754,34.625,222.46,36.878,227.158,39.321z M392.712,489.465
		c-1.451-1.861-2.716-3.869-4.009-5.853c1.295,1.983,2.561,3.991,4.014,5.849L392.712,489.465z M384.274,496.717
		c2.06-1.609,4.092-3.271,6.028-5.09c0.527-0.42,1.031-0.867,1.512-1.34c-0.497,0.466-0.994,0.953-1.492,1.367
		C388.377,493.46,386.34,495.113,384.274,496.717z M378.421,416.783c-1.572,3.695-2.65,7.581-3.206,11.558
		c0.553-3.981,1.624-7.873,3.187-11.576c4.355-11.364,16.18-18.021,28.155-15.849C394.586,398.768,382.776,405.427,378.421,416.783
		L378.421,416.783z"/>
	<path style="fill:#C9CED1;" d="M428.149,344.185c-19.235-5.812-40.614-32.242-49.747-62.616
		c-8.995-30.443-2.56-54.037,14.253-56.182c-11.7-25.091-25.591-49.101-41.514-71.749c-10.378,13.561-34.179,7.126-56.112-15.914
		c-21.933-23.109-34.249-54.729-29.613-74.24c-9.064-6.866-18.537-13.173-28.368-18.889c-9.764-5.664-19.913-10.635-30.374-14.876
		c1.157,5.816,1.251,11.794,0.277,17.643c-0.866,6.985-4.547,13.313-10.19,17.519c-5.643,4.206-12.759,5.926-19.7,4.76
		c-21.518-2.214-44.835-22.625-55.351-47.325c-0.272-0.44-0.503-0.903-0.692-1.384c-15.707,4.052-30.072,12.165-41.652,23.524
		c15.152,19.373,21.864,46.08,16.744,65.868c-0.588,2.355-1.399,4.649-2.422,6.85c-9.133,19.788-30.443,21.656-49.816,5.12
		c-2.956,22.391-2.933,45.075,0.069,67.459c19.235,5.812,40.614,32.242,49.747,62.685c9.064,30.374,2.629,53.968-14.253,56.112
		c11.711,25.063,25.602,49.049,41.514,71.68c10.378-13.492,34.179-7.057,56.112,15.983c21.933,23.109,34.249,54.729,29.613,74.24
		c18.014,13.784,37.764,25.136,58.742,33.764c-4.636-24.701,7.68-42.136,29.613-39.922c3.402,0.388,6.747,1.178,9.963,2.352
		c21.039,8.521,37.685,25.267,46.08,46.357c8.432-2.174,16.515-5.528,24.009-9.963c0.153-0.067,0.294-0.161,0.415-0.277l0.069-0.069
		c5.32-3.114,10.265-6.828,14.737-11.07c0.83-0.623,1.591-1.384,2.422-2.145c-16.951-21.725-23.317-52.722-14.322-72.718
		c2.812-7.085,8.564-12.599,15.761-15.109c7.198-2.51,15.131-1.768,21.739,2.033c4.458,2.061,8.604,4.739,12.316,7.957
		C431.175,389.254,431.151,366.57,428.149,344.185z M291.569,318.585c-28.298-9.963-57.496-43.451-69.051-80.882
		c-4.84-14.224-5.866-29.468-2.975-44.212c28.16,6.711,58.742,40.545,70.227,78.945
		C294.917,287.303,295.543,303.362,291.569,318.585L291.569,318.585z"/>
	<path style="fill:#445C71;" d="M337.511,277.349c-23.178-77.561-87.524-145.228-143.498-150.971
		c-55.905-5.743-82.543,52.722-59.364,130.214c23.178,77.561,87.524,145.228,143.429,150.971
		C333.982,413.305,360.62,354.84,337.511,277.349z M291.569,318.585c-28.298-9.963-57.496-43.451-69.051-80.882
		c-4.84-14.224-5.866-29.468-2.975-44.212c28.16,6.711,58.742,40.545,70.227,78.945
		C294.917,287.303,295.543,303.362,291.569,318.585L291.569,318.585z"/>
	<path style="fill:#394F63;" d="M291.569,318.585c-3.568,15.039-17.965,24.916-33.28,22.832
		c-29.613-3.044-63.654-38.954-75.901-79.914c-12.316-41.029,1.868-72.026,31.412-68.982c1.868,0.208,3.805,0.554,5.743,0.969
		c-2.891,14.744-1.865,29.988,2.975,44.212C234.073,275.134,263.271,308.622,291.569,318.585z"/>
	<g>
		<path style="fill:#A5B4B4;" d="M468.12,391.716l-39.896,19.948c2.974-22.4,2.952-45.097-0.067-67.491l39.896-19.948
			C471.073,346.619,471.095,369.315,468.12,391.716z"/>
		<path style="fill:#A5B4B4;" d="M432.547,205.467l-10.373,5.186l-29.523,14.762c-11.696-25.088-25.58-49.097-41.492-71.747
			l26.065-13.032c5.425-0.069,10.521-2.617,13.831-6.916C406.966,156.371,420.851,180.379,432.547,205.467z"/>
		<path style="fill:#A5B4B4;" d="M305.344,43.555l-39.896,19.948c-9.072-6.865-18.554-13.171-28.393-18.884
			c-9.755-5.695-19.911-10.673-30.388-14.894l39.897-19.948C267.561,18.395,287.326,29.753,305.344,43.555z"/>
		<path style="fill:#A5B4B4;" d="M96.089,110.315c-0.577,2.354-1.378,4.648-2.394,6.849c-9.11,19.815-30.454,21.677-49.804,5.12
			l39.896-19.948C87.493,105.56,91.634,108.246,96.089,110.315z"/>
	</g>
</g>
<g>
</g>
<g>
</g>
<g>
</g>
<g>
</g>
<g>
</g>
<g>
</g>
<g>
</g>
<g>
</g>
<g>
</g>
<g>
</g>
<g>
</g>
<g>
</g>
<g>
</g>
<g>
</g>
<g>
</g>
</svg>
