<?xml version="1.0" encoding="utf-8"?>
<!-- Generator: Adobe Illustrator 15.1.0, SVG Export Plug-In . SVG Version: 6.00 Build 0)  -->
<!DOCTYPE svg PUBLIC "-//W3C//DTD SVG 1.1//EN" "http://www.w3.org/Graphics/SVG/1.1/DTD/svg11.dtd">
<svg version="1.1" id="Capa_1" xmlns="http://www.w3.org/2000/svg" xmlns:xlink="http://www.w3.org/1999/xlink" x="0px" y="0px"
	 width="280px" height="215px" viewBox="35 0 280 215" enable-background="new 35 0 280 215" xml:space="preserve">
<g>
	<rect x="181.771" y="1.492" fill="#14A085" width="43.993" height="197.962"/>
	<rect x="115.785" y="137.864" fill="#F29C1F" width="43.992" height="61.59"/>
	<rect x="49.798" y="98.273" fill="#E57E25" width="43.992" height="101.181"/>
	<rect x="247.759" y="36.685" fill="#71C285" width="43.992" height="162.769"/>
	<path fill="#556080" d="M300.549,203.852H45.399c-2.428,0-4.399-1.966-4.399-4.397c0-2.434,1.971-4.399,4.399-4.399h255.149
		c2.428,0,4.399,1.966,4.399,4.399C304.948,201.886,302.977,203.852,300.549,203.852z"/>
</g>
<g id="XMLID_21_">
	<path id="XMLID_148_" fill="#E4AF18" d="M259.416,197.545c-26.688,0-48.32-6.167-48.32-12.495v14.57
		c0.013,6.321,21.641,12.503,48.32,12.503c26.681,0,48.309-6.182,48.322-12.503v-14.57
		C307.738,191.378,286.104,197.545,259.416,197.545"/>
	<path id="XMLID_147_" fill="#F4BF1A" d="M253.843,174.638c-26.688,0-48.325-6.171-48.325-12.496v14.569
		c0.016,6.322,21.644,12.504,48.325,12.504c26.678,0,48.307-6.182,48.322-12.504v-14.569
		C302.165,168.467,280.528,174.638,253.843,174.638"/>
	<path id="XMLID_146_" fill="#E4AF18" d="M264.993,151.727c-26.688,0-48.323-6.167-48.323-12.494v14.57
		c0.015,6.321,21.643,12.504,48.323,12.504s48.307-6.183,48.322-12.504v-14.57C313.315,145.56,291.678,151.727,264.993,151.727"/>
	<path id="XMLID_145_" fill="#FFD949" d="M302.165,114.513c0,6.327-21.637,12.225-48.322,12.225
		c-26.688,0-48.325-5.897-48.325-12.225s21.637-10.683,48.325-10.683C280.528,103.83,302.165,108.186,302.165,114.513"/>
	<path id="XMLID_144_" fill="#F4BF1A" d="M253.843,126.737c-26.688,0-48.325-6.17-48.325-12.496v14.57
		c0.016,6.322,21.644,12.504,48.325,12.504c26.678,0,48.307-6.182,48.322-12.504v-14.57
		C302.165,120.567,280.528,126.737,253.843,126.737"/>
	<path id="XMLID_143_" fill="#DCA815" d="M212.955,120.644v14.567c1.127,0.467,2.365,0.915,3.715,1.345v-14.569
		C215.32,121.559,214.082,121.109,212.955,120.644"/>
	<path id="XMLID_142_" fill="#DCA815" d="M291.012,121.986v14.569c1.351-0.43,2.589-0.878,3.721-1.345v-14.567
		C293.601,121.109,292.362,121.559,291.012,121.986"/>
	<path id="XMLID_141_" fill="#DCA815" d="M222.245,123.5v14.57c1.19,0.278,2.429,0.541,3.719,0.788v-14.572
		C224.674,124.039,223.436,123.777,222.245,123.5"/>
	<path id="XMLID_140_" fill="#DCA815" d="M281.718,124.286v14.573c1.29-0.248,2.528-0.511,3.719-0.789V123.5
		C284.246,123.777,283.008,124.039,281.718,124.286"/>
	<path id="XMLID_139_" fill="#DCA815" d="M231.539,125.217v14.573c1.211,0.175,2.448,0.338,3.717,0.481v-14.574
		C233.987,125.551,232.75,125.387,231.539,125.217"/>
	<path id="XMLID_138_" fill="#DCA815" d="M272.428,125.701v14.574c1.27-0.147,2.504-0.311,3.717-0.484v-14.574
		C274.932,125.392,273.697,125.554,272.428,125.701"/>
	<path id="XMLID_137_" fill="#DCA815" d="M240.831,126.237v14.573c1.223,0.098,2.458,0.182,3.717,0.252v-14.58
		C243.289,126.415,242.054,126.332,240.831,126.237"/>
	<path id="XMLID_136_" fill="#DCA815" d="M263.135,126.482v14.58c1.258-0.07,2.496-0.154,3.717-0.252v-14.573
		C265.631,126.332,264.393,126.415,263.135,126.482"/>
	<path id="XMLID_135_" fill="#DCA815" d="M253.843,126.737c-0.625,0-1.242-0.007-1.858-0.013v14.579
		c0.616,0.006,1.233,0.012,1.858,0.012c0.621,0,1.238-0.006,1.857-0.012v-14.579C255.081,126.73,254.464,126.737,253.843,126.737"/>
	<path id="XMLID_134_" fill="#C49214" d="M224.104,145.635v14.566c1.13,0.468,2.368,0.916,3.717,1.348v-14.571
		C226.473,146.549,225.234,146.101,224.104,145.635"/>
	<path id="XMLID_133_" fill="#C49214" d="M302.165,146.978v14.571c1.348-0.432,2.587-0.88,3.715-1.348v-14.566
		C304.752,146.101,303.513,146.549,302.165,146.978"/>
	<path id="XMLID_132_" fill="#C49214" d="M233.398,148.49v14.571c1.189,0.276,2.428,0.54,3.717,0.787v-14.572
		C235.826,149.029,234.588,148.767,233.398,148.49"/>
	<path id="XMLID_131_" fill="#C49214" d="M292.871,149.276v14.575c1.288-0.25,2.527-0.514,3.718-0.79V148.49
		C295.398,148.767,294.159,149.029,292.871,149.276"/>
	<path id="XMLID_130_" fill="#C49214" d="M242.689,150.207v14.576c1.213,0.172,2.447,0.336,3.717,0.482v-14.574
		C245.137,150.545,243.902,150.382,242.689,150.207"/>
	<path id="XMLID_129_" fill="#C49214" d="M283.576,150.688v14.577c1.271-0.147,2.508-0.311,3.72-0.482v-14.576
		C286.084,150.382,284.847,150.546,283.576,150.688"/>
	<path id="XMLID_128_" fill="#C49214" d="M251.984,151.228v14.576c1.221,0.096,2.458,0.179,3.716,0.249v-14.579
		C254.442,151.405,253.205,151.322,251.984,151.228"/>
	<path id="XMLID_127_" fill="#C49214" d="M274.287,151.474v14.579c1.257-0.07,2.496-0.153,3.716-0.249v-14.576
		C276.783,151.322,275.544,151.405,274.287,151.474"/>
	<path id="XMLID_126_" fill="#C49214" d="M264.993,151.727c-0.622,0-1.241-0.005-1.858-0.012v14.579
		c0.617,0.008,1.236,0.013,1.858,0.013s1.24-0.005,1.858-0.013v-14.579C266.233,151.722,265.615,151.727,264.993,151.727"/>
	<path id="XMLID_125_" fill="#DCA815" d="M212.955,168.543v14.567c1.127,0.467,2.365,0.913,3.715,1.346v-14.57
		C215.32,169.459,214.082,169.007,212.955,168.543"/>
	<path id="XMLID_124_" fill="#DCA815" d="M291.012,169.886v14.57c1.351-0.432,2.589-0.879,3.721-1.346v-14.567
		C293.601,169.008,292.362,169.459,291.012,169.886"/>
	<path id="XMLID_123_" fill="#DCA815" d="M222.245,171.397v14.571c1.19,0.279,2.429,0.541,3.719,0.789v-14.571
		C224.674,171.937,223.436,171.675,222.245,171.397"/>
	<path id="XMLID_122_" fill="#DCA815" d="M281.718,172.187v14.572c1.29-0.249,2.528-0.511,3.719-0.79v-14.571
		C284.246,171.675,283.008,171.937,281.718,172.187"/>
	<path id="XMLID_121_" fill="#DCA815" d="M231.539,173.119v14.571c1.211,0.175,2.448,0.336,3.717,0.483v-14.575
		C233.987,173.451,232.75,173.289,231.539,173.119"/>
	<path id="XMLID_120_" fill="#DCA815" d="M272.428,173.596v14.578c1.27-0.15,2.504-0.31,3.717-0.483v-14.571
		C274.932,173.291,273.697,173.453,272.428,173.596"/>
	<path id="XMLID_119_" fill="#DCA815" d="M240.831,174.136v14.575c1.223,0.097,2.458,0.181,3.717,0.251v-14.58
		C243.289,174.315,242.054,174.229,240.831,174.136"/>
	<path id="XMLID_118_" fill="#DCA815" d="M263.135,174.382v14.58c1.258-0.07,2.496-0.154,3.717-0.251v-14.575
		C265.631,174.229,264.393,174.315,263.135,174.382"/>
	<path id="XMLID_117_" fill="#DCA815" d="M253.843,174.638c-0.625,0-1.242-0.008-1.858-0.014v14.579
		c0.616,0.006,1.233,0.012,1.858,0.012c0.621,0,1.238-0.006,1.857-0.012v-14.579C255.081,174.63,254.464,174.638,253.843,174.638"/>
	<path id="XMLID_116_" fill="#C49214" d="M218.529,191.451v14.567c1.131,0.467,2.367,0.915,3.716,1.346v-14.569
		C220.896,192.366,219.66,191.915,218.529,191.451"/>
	<path id="XMLID_115_" fill="#C49214" d="M296.589,192.795v14.569c1.349-0.43,2.586-0.879,3.718-1.346v-14.567
		C299.175,191.916,297.938,192.366,296.589,192.795"/>
	<path id="XMLID_114_" fill="#C49214" d="M227.821,194.307v14.571c1.189,0.278,2.43,0.541,3.718,0.788v-14.571
		C230.251,194.848,229.011,194.583,227.821,194.307"/>
	<path id="XMLID_113_" fill="#C49214" d="M287.296,195.095v14.575c1.286-0.251,2.527-0.514,3.716-0.792v-14.571
		C289.823,194.583,288.582,194.848,287.296,195.095"/>
	<path id="XMLID_112_" fill="#C49214" d="M237.115,196.024v14.576c1.211,0.172,2.446,0.336,3.716,0.48v-14.573
		C239.562,196.359,238.326,196.198,237.115,196.024"/>
	<path id="XMLID_111_" fill="#C49214" d="M278.003,196.506v14.575c1.27-0.147,2.505-0.31,3.715-0.48v-14.576
		C280.508,196.199,279.272,196.362,278.003,196.506"/>
	<path id="XMLID_110_" fill="#C49214" d="M246.406,197.043v14.576c1.222,0.096,2.46,0.182,3.718,0.251v-14.578
		C248.866,197.223,247.628,197.14,246.406,197.043"/>
	<path id="XMLID_109_" fill="#C49214" d="M268.709,197.292v14.578c1.261-0.069,2.496-0.155,3.719-0.251v-14.576
		C271.205,197.14,269.97,197.223,268.709,197.292"/>
	<path id="XMLID_108_" fill="#C49214" d="M259.416,197.545c-0.621,0-1.241-0.006-1.856-0.013v14.579
		c0.615,0.008,1.235,0.012,1.856,0.012c0.623,0,1.243-0.004,1.857-0.012v-14.579C260.659,197.539,260.039,197.545,259.416,197.545"
		/>
	<path id="XMLID_107_" fill="#FCC62D" d="M300.699,179.577c-5.278,5.202-24.25,9.638-46.856,9.638
		c-17.677,0-33.126-2.714-41.552-6.382c-0.774,0.786-1.195,1.618-1.195,2.486c0,6.328,21.632,12.226,48.32,12.226
		s48.322-5.897,48.322-12.226C307.738,183.141,305.165,181.189,300.699,179.577"/>
	<path id="XMLID_106_" fill="#FFD949" d="M264.993,166.307c-24.558,0-44.821-5.239-47.902-11.004
		c-7.21,1.831-11.573,4.271-11.573,7.109c0,6.325,21.637,12.226,48.325,12.226c26.686,0,48.322-5.9,48.322-12.226
		c0-0.278-0.056-0.552-0.14-0.821C293.16,164.386,279.865,166.307,264.993,166.307"/>
	<path id="XMLID_105_" fill="#FCC62D" d="M300.293,132.046c-5.782,5.04-24.383,9.27-46.45,9.27c-14.253,0-27.059-1.768-35.904-4.372
		c-0.821,0.809-1.269,1.664-1.269,2.561c0,6.326,21.635,12.223,48.323,12.223c26.685,0,48.322-5.896,48.322-12.223
		C313.315,136.479,308.365,133.905,300.293,132.046"/>
</g>
</svg>
