<svg height="512pt" viewBox="-24 0 512 512" width="512pt" xmlns="http://www.w3.org/2000/svg"><path d="m231.976562 0c35.359376 0 64 28.640625 64 64 0 35.28125-28.640624 64-64 64h-.082031c-35.277343-.078125-63.917969-28.71875-63.917969-64 0-35.359375 28.71875-64 64-64zm0 0" fill="#e6e9ed"/><path d="m431.976562 224h-400l199.917969-96h.082031zm0 0" fill="#ccd1d9"/><g fill="#e6e9ed"><path d="m431.976562 240c0 4.398438-3.601562 8-8 8h-36c-4.402343 0-11.601562 0-16 0h-56c-4.402343 0-11.601562 0-16 0h-24c-4.402343 0-11.601562 0-16 0h-56c-4.402343 0-11.601562 0-16 0h-24c-4.402343 0-11.601562 0-16 0h-56c-4.402343 0-11.601562 0-16 0h-36c-4.402343 0-8-3.601562-8-8v-8c0-4.398438 3.597657-8 8-8h384c4.398438 0 8 3.601562 8 8zm0 0"/><path d="m391.976562 260c0 6.628906-5.375 12-12 12-6.628906 0-12-5.371094-12-12s5.371094-12 12-12c6.625 0 12 5.371094 12 12zm0 0"/><path d="m319.976562 260c0 6.640625-5.359374 12-12 12-6.5625 0-12-5.359375-12-12s5.4375-12 12-12c6.640626 0 12 5.359375 12 12zm0 0"/><path d="m279.976562 260c0 6.628906-5.375 12-12 12-6.628906 0-12-5.371094-12-12s5.371094-12 12-12c6.625 0 12 5.371094 12 12zm0 0"/><path d="m207.976562 260c0 6.640625-5.359374 12-12 12-6.5625 0-12-5.359375-12-12s5.4375-12 12-12c6.640626 0 12 5.359375 12 12zm0 0"/><path d="m95.976562 260c0 6.640625-5.359374 12-12 12-6.5625 0-12-5.359375-12-12s5.4375-12 12-12c6.640626 0 12 5.359375 12 12zm0 0"/><path d="m167.976562 260c0 6.628906-5.375 12-12 12-6.628906 0-12-5.371094-12-12s5.371094-12 12-12c6.625 0 12 5.371094 12 12zm0 0"/></g><path d="m143.976562 260v155.992188h-48v-155.992188c0-6.640625-5.359374-12-12-12h72c-6.640624 0-12 5.359375-12 12zm0 0" fill="#ccd1d9"/><path d="m367.976562 260v155.992188h-48v-155.992188c0-6.640625-5.359374-12-12-12h72c-6.640624 0-12 5.359375-12 12zm0 0" fill="#ccd1d9"/><path d="m255.976562 260v155.992188h-48v-155.992188c0-6.640625-5.359374-12-12-12h72c-6.640624 0-12 5.359375-12 12zm0 0" fill="#ccd1d9"/><path d="m263.976562 415.992188c4.398438 0 8 3.601562 8 8v32.023437c0 4.398437-3.601562 8-8 8h-64.160156c-4.402344 0-8-3.601563-8-8v-32.023437c0-4.398438 3.597656-8 8-8h.160156 16 32zm0 0" fill="#e6e9ed"/><path d="m376.054688 415.992188c4.402343 0 8 3.601562 8 8v32.023437c0 4.398437-3.597657 8-8 8h-64.160157c-4.398437 0-8-3.601563-8-8v-32.023437c0-4.398438 3.601563-8 8-8h.082031 16 32 16zm0 0" fill="#e6e9ed"/><path d="m152.054688 415.992188c4.402343 0 8 3.601562 8 8v32.023437c0 4.398437-3.597657 8-8 8h-64.160157c-4.398437 0-8-3.601563-8-8v-32.023437c0-4.398438 3.601563-8 8-8h.082031 16 32 16zm0 0" fill="#e6e9ed"/><path d="m399.976562 448c4.398438 0 8 3.601562 8 8v16.007812c0 4.398438-3.601562 8-8 8h-335.921874c-4.398438 0-8-3.601562-8-8v-16.007812c0-4.398438 3.601562-8 8-8h7.839843 16 64.160157 16 15.769531 16 64.152343 16 15.917969 16 64.160157 16zm0 0" fill="#e6e9ed"/><path d="m423.976562 472c4.398438 0 8 3.601562 8 8v23.992188c0 4.398437-3.601562 8-8 8h-383.921874c-4.398438 0-8-3.601563-8-8v-23.992188c0-4.398438 3.601562-8 8-8h8 16 335.921874 16zm0 0" fill="#e6e9ed"/><path d="m455.953125 512h-447.953125c-4.425781 0-8-3.574219-8-8s3.574219-8 8-8h447.953125c4.421875 0 8 3.574219 8 8s-3.578125 8-8 8zm0 0" fill="#656d78"/><path d="m119.929688 384.023438c-4.425782 0-8-3.574219-8-8v-88.121094c0-4.421875 3.574218-8 8-8 4.421874 0 8 3.578125 8 8v88.121094c0 4.425781-3.578126 8-8 8zm0 0" fill="#e6e9ed"/><path d="m231.976562 384.023438c-4.425781 0-8-3.574219-8-8v-88.121094c0-4.421875 3.574219-8 8-8 4.421876 0 8 3.578125 8 8v88.121094c0 4.425781-3.578124 8-8 8zm0 0" fill="#e6e9ed"/><path d="m344.023438 384.023438c-4.421876 0-8-3.574219-8-8v-88.121094c0-4.421875 3.578124-8 8-8 4.425781 0 8 3.578125 8 8v88.121094c0 4.425781-3.574219 8-8 8zm0 0" fill="#e6e9ed"/><path d="m232.105469 103.984375c-4.425781 0-8-3.578125-8-8v-63.984375c0-4.425781 3.574219-8 8-8 4.421875 0 8 3.574219 8 8v63.984375c0 4.421875-3.585938 8-8 8zm0 0" fill="#545c66"/><path d="m56.054688 464h351.921874v8.007812h-351.921874zm0 0" fill="#ccd1d9"/><path d="m32.054688 487.992188h399.921874v8.007812h-399.921874zm0 0" fill="#ccd1d9"/><path d="m79.894531 440.007812h80.160157v8.007813h-80.160157zm0 0" fill="#ccd1d9"/><path d="m191.816406 440.007812h80.160156v8.007813h-80.160156zm0 0" fill="#ccd1d9"/><path d="m303.742188 440.007812h80.160156v8.007813h-80.160156zm0 0" fill="#ccd1d9"/><path d="m248.089844 103.984375h-31.96875c-4.425782 0-8-3.578125-8-8 0-4.425781 3.574218-8 8-8h31.96875c4.421875 0 8 3.574219 8 8 0 4.421875-3.585938 8-8 8zm0 0" fill="#656d78"/><path d="m256.097656 48h-47.984375c-4.425781 0-8-3.574219-8-8s3.574219-8 8-8h47.984375c4.421875 0 8 3.574219 8 8s-3.585937 8-8 8zm0 0" fill="#656d78"/><path d="m263.847656 72h-7.75c-4.425781 0-8-3.574219-8-8s3.574219-8 8-8h7.75c4.425782 0 8 3.574219 8 8s-3.574218 8-8 8zm0 0" fill="#656d78"/><path d="m208.105469 72h-7.992188c-4.425781 0-8-3.574219-8-8s3.574219-8 8-8h7.992188c4.421875 0 8 3.574219 8 8s-3.585938 8-8 8zm0 0" fill="#656d78"/><path d="m31.976562 224h400v8h-400zm0 0" fill="#e6e9ed"/></svg>