<svg height="496pt" viewBox="0 0 496.04 496" width="496pt" xmlns="http://www.w3.org/2000/svg"><path d="m360.058594 382.640625 22.640625-22.558594 11.28125-11.359375 92.640625 92.640625c12.558594 12.480469 12.558594 32.796875 0 45.277344-12.480469 12.480469-32.722656 12.480469-45.191406 0l-92.640626-92.636719zm0 0" fill="#656d78"/><path d="m338.621094 315.914062 44.078125 44.167969-22.640625 22.558594-44.078125-44c4.078125-3.445313 8-7.039063 11.839843-10.878906 3.839844-3.847657 7.441407-7.757813 10.800782-11.847657zm0 0" fill="#ccd1d9"/><path d="m296.148438 152.082031v179.769531c-59.28125 46.957032-142.878907 48.167969-203.519532 3.679688-1.511718-1.191406-2.960937-2.320312-4.480468-3.511719v-219.9375h168zm0 0" fill="#f5f7fa"/><path d="m67.261719 304.554688c-5.761719-6.402344-10.960938-13.121094-15.601563-20.082032-7.679687-11.679687-13.761718-24.078125-18.230468-36.871094-1.839844-5.199218-3.371094-10.40625-4.640626-15.597656-6.410156-26.242187-6.410156-53.769531 0-80 1.269532-5.203125 2.800782-10.402344 4.640626-15.601562 4.476562-12.800782 10.550781-25.199219 18.230468-36.878906 4.640625-6.960938 9.839844-13.679688 15.601563-20.082032 1.917969-2.078125 3.917969-4.160156 6-6.238281 65.679687-65.59375 171.917969-65.59375 237.519531 0 8.160156 8.167969 15.359375 17.039063 21.511719 26.320313 3.128906 4.71875 5.917969 9.445312 8.488281 14.320312 2.550781 4.878906 4.871094 9.917969 6.871094 14.957031 16.398437 40.402344 16.398437 86 0 126.402344-2 5.039063-4.320313 10.085937-6.871094 14.957031-2.5625 4.882813-5.359375 9.601563-8.488281 14.320313-6.160157 9.28125-13.359375 18.167969-21.511719 26.320312-4.730469 4.722657-9.601562 9.042969-14.640625 13.042969v-171.761719l-40-40h-168v211.921875c-5.128906-3.921875-10.089844-8.402344-14.878906-13.203125-2.074219-2.078125-4.074219-4.160156-6-6.246093zm0 0" fill="#5d9cec"/><path d="m296.148438 152.082031h-40v-40zm0 0" fill="#fff"/><path d="m28.789062 232.003906c1.269532 5.277344 2.800782 10.476563 4.640626 15.597656 4.476562 12.800782 10.550781 25.191407 18.230468 36.871094 4.640625 6.960938 9.769532 13.679688 15.601563 20.082032 1.917969 2.085937 3.839843 4.167968 5.917969 6.238281h.082031c4.796875 4.808593 9.757812 9.28125 14.878906 13.199219v.082031c1.511719 1.199219 2.960937 2.320312 4.480469 3.441406 60.640625 44.488281 144.238281 43.277344 203.519531-3.679687 5.039063-4 9.910156-8.320313 14.640625-13.042969h.078125c8.160156-8.160157 15.359375-17.039063 21.441406-26.320313 3.128907-4.71875 5.917969-9.4375 8.488281-14.320312 2.550782-4.871094 4.871094-9.917969 6.871094-14.957032 16.398438-40.402343 16.398438-86 0-126.402343-2-5.039063-4.320312-10.078125-6.871094-14.957031-2.5625-4.875-5.359374-9.601563-8.488281-14.320313-6.082031-9.28125-13.28125-18.160156-21.441406-26.320313h-.078125c-65.601562-65.59375-171.839844-65.59375-237.519531 0h-.082031c-2.078126 2.085938-4 4.167969-5.917969 6.238282-5.832031 6.402344-10.960938 13.121094-15.601563 20.082031-7.679687 11.679687-13.761718 24.085937-18.230468 36.878906-1.839844 5.121094-3.371094 10.320313-4.640626 15.597657-6.410156 26.242187-6.410156 53.769531 0 80.011718zm27.429688-175.769531c75.042969-74.953125 196.5625-74.953125 271.601562 0 71.121094 71.128906 74.800782 184.238281 10.800782 259.679687-3.359375 4.089844-6.960938 8-10.800782 11.839844-3.839843 3.839844-7.769531 7.441406-11.839843 10.878906-75.441407 63.914063-188.550781 60.234376-259.761719-10.878906-74.957031-74.953125-74.957031-196.558594 0-271.519531zm0 0" fill="#e6e9ed"/><g fill="#ccd1d9"><path d="m256.148438 208.195312h-128c-4.425782 0-8-3.578124-8-8 0-4.425781 3.574218-8 8-8h128c4.421874 0 8 3.574219 8 8 0 4.421876-3.585938 8-8 8zm0 0"/><path d="m256.148438 240.226562h-128c-4.425782 0-8-3.578124-8-8 0-4.425781 3.574218-8 8-8h128c4.421874 0 8 3.574219 8 8 0 4.421876-3.585938 8-8 8zm0 0"/><path d="m256.148438 272.226562h-128c-4.425782 0-8-3.578124-8-8 0-4.425781 3.574218-8 8-8h128c4.421874 0 8 3.574219 8 8 0 4.421876-3.585938 8-8 8zm0 0"/><path d="m192.085938 304.226562h-63.9375c-4.425782 0-8-3.578124-8-8 0-4.425781 3.574218-8 8-8h63.9375c4.421874 0 8 3.574219 8 8 0 4.421876-3.578126 8-8 8zm0 0"/></g></svg>